<svg xmlns="http://www.w3.org/2000/svg" viewBox="0 0 512 512" width="100%" height="100%">
    <g stroke="#cdd6f4" stroke-width="32" stroke-linecap="round" stroke-linejoin="round" fill="none">
        <polyline points="210,176 130,256 210,336"/>
        <polyline points="302,176 382,256 302,336"/>
        <line x1="280" y1="156" x2="232" y2="356"/>
    </g>

    <g transform="translate(130, 270) rotate(-10)">
        <path d="M0,0 L0,56 L16,40 L28,64 L38,58 L26,34 L48,34 Z" fill="#89b4fa" stroke="#1e1e2e" stroke-width="4"
              stroke-linejoin="round"/>
        <rect x="20" y="68" width="56" height="16" rx="8" fill="#89b4fa" stroke="#1e1e2e" stroke-width="2"/>
    </g>

    <g transform="translate(320, 160) rotate(15)">
        <path d="M0,0 L0,56 L16,40 L28,64 L38,58 L26,34 L48,34 Z" fill="#f38ba8" stroke="#1e1e2e" stroke-width="4"
              stroke-linejoin="round"/>
        <rect x="20" y="68" width="56" height="16" rx="8" fill="#f38ba8" stroke="#1e1e2e" stroke-width="2"/>
    </g>
</svg>
